{"title":"Man of the House 1995","uid":14435724,"size":734795776,"categoryP":"video","categoryS":"movies","magnet":"?xt=urn:btih:ec3c296bf94bb06ac1d1546d45f1a4bd076006a4&amp;dn=Man+of+the+House+1995&amp;tr=udp%3A%2F%2Ftracker.leechers-paradise.org%3A6969&amp;tr=udp%3A%2F%2Fzer0day.ch%3A1337&amp;tr=udp%3A%2F%2Fopen.demonii.com%3A1337&amp;tr=udp%3A%2F%2Ftracker.coppersurfer.tk%3A6969&amp;tr=udp%3A%2F%2Fexodus.desync.com%3A6969","seeders":0,"leechers":0,"uploader":"jlnukka","files":1,"time":1461634404,"description":"Format                         : AVI\r\nFormat/Info                    : Audio Video Interleave\r\nFile size                      : 701 MiB\r\nDuration                       : 1h 36mn\r\nOverall bit rate               : 1 012 Kbps\r\nWriting application            : VirtualDubMod 1.5.4.1 (build 2178/release)\r\nWriting library                : VirtualDubMod build 2178/release\r\n\r\nVideo\r\nID                             : 0\r\nFormat                         : MPEG-4 Visual\r\nFormat profile                 : Advanced   \r\nFormat settings, BVOP          : 1\r\nFormat settings, QPel          : No\r\nFormat settings, GMC           : No warppoints\r\nFormat settings, Matrix        : Custom\r\nCodec ID                       : XVID\r\nCodec ID/Hint                  : XviD\r\nDuration                       : 1h 36mn\r\nBit rate                       : 813 Kbps\r\nWidth                          : 592 pixels\r\nHeight                         : 448 pixels\r\nDisplay aspect ratio           : 4:3\r\nFrame rate                     : 23.976 fps\r\nColor space                    : YUV\r\nChroma subsampling             : 4:2:0\r\nBit depth                      : 8 bits\r\nScan type                      : Progressive\r\nCompression mode               : Lossy\r\nBits/(Pixel*Frame)             : 0.128\r\nStream size                    : 563 MiB (80%)\r\nWriting library                : XviD 1.2.0.dev47 (UTC 2006-11-01)\r\n\r\nAudio\r\nID                             : 1\r\nFormat                         : MPEG Audio\r\nFormat version                 : Version 1\r\nFormat profile                 : Layer 3\r\nMode                           : Joint stereo\r\nCodec ID                       : 55\r\nCodec ID/Hint                  : MP3\r\nDuration                       : 1h 36mn\r\nBit rate mode                  : Constant\r\nBit rate                       : 192 Kbps\r\nChannel(s)                     : 2 channels\r\nSampling rate                  : 48.0 KHz\r\nCompression mode               : Lossy\r\nStream size                    : 133 MiB (19%)\r\nAlignment                      : Aligned on interleaves\r\nInterleave, duration           : 83 ms (2.00 video frames)\r\nInterleave, preload duration   : 504 ms\r\nWriting library                : LAME3.97 \r\nEncoding settings              : -m j -V 4 -q 2 -lowpass 18.6 -b 192\r\nLanguage                       : English","torrent":{"xt":"urn:btih:ec3c296bf94bb06ac1d1546d45f1a4bd076006a4","amp;dn":"Man+of+the+House+1995","amp;tr":["udp%3A%2F%2Ftracker.leechers-paradise.org%3A6969","udp%3A%2F%2Fzer0day.ch%3A1337","udp%3A%2F%2Fopen.demonii.com%3A1337","udp%3A%2F%2Ftracker.coppersurfer.tk%3A6969","udp%3A%2F%2Fexodus.desync.com%3A6969"],"infoHash":"ec3c296bf94bb06ac1d1546d45f1a4bd076006a4","infoHashBuffer":{"type":"Buffer","data":[236,60,41,107,249,75,176,106,193,209,84,109,69,241,164,189,7,96,6,164]},"announce":[],"urlList":[]}}